# xmcd
#
# Track frame offsets: 
#        150
#        14241
#        33469
#        54044
#        71481
#        87934
#        102626
#        119258
#        136551
#        151681
#        171338
#
# Disc length: 2509 seconds
#
# Revision: 1
# Processed by: cddbd v1.5.2PL0 Copyright (c) Steve Scherf et al.
# Submitted via: ExactAudioCopy v1.0b3
#
DISCID=8909cb0b
DTITLE=Tinman Jones - Poetic
DYEAR=2003
DGENRE=Contemporary Christian
TTITLE0=Friend
TTITLE1=Say Goodbye
TTITLE2=Falling Forward
TTITLE3=I Will
TTITLE4=Poetic
TTITLE5=Father Like You
TTITLE6=Sunshine
TTITLE7=Superhero
TTITLE8=Party
TTITLE9=Crave
TTITLE10=Guitar Saint
EXTD=
EXTT0=
EXTT1=
EXTT2=
EXTT3=
EXTT4=
EXTT5=
EXTT6=
EXTT7=
EXTT8=
EXTT9=
EXTT10=
PLAYORDER=
